<svg width="24" height="23" viewBox="0 0 24 23" fill="none" xmlns="http://www.w3.org/2000/svg">
<g clip-path="url(#clip0_3933_16530)">
<path d="M7.79856 7.30539C7.79856 6.92287 7.79619 6.54035 7.79856 6.15784C7.81516 4.0928 9.28542 2.41196 11.4345 1.99817C13.9185 1.52017 16.4032 3.18314 16.7174 5.55363C16.7802 6.02772 16.7547 6.51243 16.7683 6.99267C16.7713 7.09598 16.7683 7.19985 16.7683 7.30706C16.9984 7.36346 17.2148 7.40646 17.4246 7.47012C19.3152 8.04194 20.5454 9.62785 20.5602 11.5427C20.5738 13.2983 20.5738 15.0546 20.5602 16.8102C20.5442 18.9244 19.0727 20.6041 16.8917 21.009C16.597 21.0637 16.2893 21.0777 15.9882 21.0782C13.5178 21.0838 11.048 21.0838 8.57756 21.0805C6.2453 21.0777 4.43297 19.6269 4.05295 17.4563C4.01086 17.2173 4.00434 16.9705 4.00375 16.727C4.00137 15.0278 4.0156 13.3274 4.00019 11.6276C3.97885 9.25985 5.77517 7.66613 7.63434 7.35341C7.68414 7.34503 7.73157 7.32549 7.79856 7.30539ZM12.2787 19.7592C13.4994 19.7592 14.7195 19.7604 15.9401 19.7581C16.1393 19.7581 16.3421 19.7581 16.5371 19.7269C18.0951 19.4767 19.1557 18.2945 19.1593 16.8019C19.164 15.0529 19.1623 13.3034 19.1575 11.5544C19.1575 11.3534 19.1385 11.149 19.0965 10.9524C18.7905 9.53739 17.5651 8.60259 16.0048 8.60036C13.5267 8.59589 11.0491 8.59869 8.57104 8.60036C8.37955 8.60036 8.18451 8.60539 7.99717 8.63777C6.4445 8.90526 5.40998 10.0746 5.40761 11.5656C5.40405 13.3078 5.40524 15.0501 5.40939 16.7918C5.40939 16.9928 5.42599 17.1972 5.46749 17.3938C5.76687 18.8083 6.99525 19.7498 8.55089 19.757C9.79349 19.7626 11.0361 19.7581 12.2787 19.7581V19.7592ZM9.22792 7.26295H15.3597C15.3597 6.83296 15.3829 6.41583 15.355 6.00148C15.2779 4.85281 14.6797 4.00178 13.577 3.5221C12.4583 3.03516 11.3669 3.16024 10.3828 3.8672C9.1716 4.73722 9.11291 5.97077 9.22732 7.26295H9.22792Z" fill="#273239"/>
<path d="M11.5797 14.1654C11.5797 13.88 11.5755 13.5947 11.5808 13.3099C11.588 12.9106 11.8838 12.6297 12.2869 12.6309C12.6871 12.632 12.9835 12.9162 12.9871 13.316C12.9924 13.8934 12.993 14.4709 12.9871 15.0477C12.9829 15.4453 12.6818 15.7284 12.281 15.7273C11.8826 15.7262 11.5868 15.4397 11.5808 15.0416C11.5761 14.7495 11.5797 14.4575 11.5803 14.1654H11.5797Z" fill="#273239"/>
</g>
<defs>
<clipPath id="clip0_3933_16530">
<rect width="24" height="23" fill="white"/>
</clipPath>
</defs>
</svg>
