<svg width="24" height="24" viewBox="0 0 24 24" fill="none" xmlns="http://www.w3.org/2000/svg">
<path d="M11.9947 21.9865C9.48901 21.9865 6.98218 21.9546 4.47713 21.9996C3.13248 22.0239 1.88502 21.0016 2.00846 19.2332C2.19808 16.5169 3.854 14.228 6.31909 13.3475C6.92076 13.1326 7.5421 13.0113 8.17775 13.0101C10.7281 13.0051 13.2791 12.9888 15.8294 13.0126C18.9868 13.0419 21.6738 15.6621 21.9677 18.9527C22.0095 19.4207 22.0333 19.885 21.8926 20.3411C21.5849 21.3378 20.7262 21.984 19.6905 21.9858C17.1252 21.989 14.5599 21.9871 11.9941 21.9871L11.9947 21.9865ZM12.0048 20.4899C14.5414 20.4899 17.0781 20.4899 19.6141 20.4899C20.2576 20.4899 20.5939 20.1368 20.5682 19.4588C20.5563 19.1489 20.5253 18.8352 20.4603 18.5334C19.9451 16.1326 18.0053 14.5079 15.6529 14.5042C13.2576 14.4998 10.8623 14.5017 8.46755 14.5048C8.21532 14.5048 7.96189 14.5198 7.71085 14.5473C5.3835 14.801 3.48668 16.9724 3.43718 19.4363C3.42287 20.1462 3.74249 20.4899 4.4175 20.4905C6.9464 20.4905 9.47589 20.4905 12.0048 20.4905V20.4899Z" fill="#273239"/>
<path d="M7 6.99732C6.9994 4.25351 9.23773 2.00478 11.9752 2.00001C14.7599 1.99524 17.0006 4.23084 17 7.01402C17 9.74292 14.7509 12.0012 12.0361 12C9.23654 11.9982 7.00119 9.77751 7 6.99732ZM15.571 7.00209C15.565 5.03072 13.9673 3.42679 12.0122 3.42917C10.0196 3.43156 8.42661 5.02893 8.429 7.02178C8.43138 8.98479 10.05 10.5798 12.0325 10.572C13.978 10.5643 15.577 8.95139 15.571 7.00209Z" fill="#273239"/>
</svg>
